<?xml version="1.0" standalone="no"?>
<!DOCTYPE svg PUBLIC "-//W3C//DTD SVG 20010904//EN"
 "http://www.w3.org/TR/2001/REC-SVG-20010904/DTD/svg10.dtd">
<svg version="1.0" xmlns="http://www.w3.org/2000/svg"
 width="204.000000pt" height="204.000000pt" viewBox="0 0 204.000000 204.000000"
 preserveAspectRatio="xMidYMid meet">
<metadata>
Created by potrace 1.14, written by Peter Selinger 2001-2017
</metadata>
<g transform="translate(0.000000,204.000000) scale(0.100000,-0.100000)"
fill="#000000" stroke="none">
<path d="M1432 1448 c-6 -25 -17 -38 -49 -53 -39 -19 -42 -23 -42 -60 -1 -105
64 -248 155 -344 l60 -64 58 69 c84 100 138 215 144 308 4 72 4 73 -22 80 -36
9 -66 41 -66 71 l0 25 -115 0 -114 0 -9 -32z m204 -47 c7 -16 24 -34 43 -42
25 -11 31 -20 31 -45 0 -72 -71 -223 -133 -282 l-29 -27 -34 39 c-49 56 -90
135 -108 204 -22 81 -21 89 14 107 16 8 37 29 45 45 15 29 18 30 88 30 71 0
73 -1 83 -29z"/>
<path d="M1471 1364 c-33 -27 -48 -76 -37 -120 8 -32 61 -84 85 -83 11 0 10 3
-5 9 -12 5 -25 13 -28 18 -6 11 14 36 36 45 10 4 9 8 -2 16 -18 13 -43 14 -36
2 4 -5 0 -12 -6 -14 -10 -4 -10 -6 -1 -6 13 -1 6 -31 -7 -31 -11 0 -34 59 -26
68 4 3 11 0 16 -8 7 -10 10 -11 10 -2 0 7 13 12 33 12 41 0 59 -11 47 -29 -4
-8 -6 -21 -3 -29 3 -8 0 -18 -8 -23 -11 -7 -9 -9 8 -9 16 0 21 4 17 15 -6 16
12 20 40 9 24 -9 19 -21 -11 -32 -20 -7 -22 -11 -9 -11 10 -1 33 14 52 33 29
29 34 41 33 78 -1 23 -3 35 -6 24 -4 -14 -11 -17 -36 -12 -35 7 -48 17 -29 23
6 3 9 10 5 16 -4 6 0 8 10 4 11 -4 14 -2 11 8 -7 18 -58 38 -81 32 -13 -3 -11
-5 7 -6 53 -3 62 -32 18 -60 -18 -11 -20 -11 -14 4 5 14 2 16 -19 11 -16 -4
-25 -2 -25 5 0 7 -3 9 -7 6 -3 -4 2 -16 12 -27 18 -19 17 -20 -3 -20 -12 0
-22 6 -22 13 0 8 -4 7 -10 -3 -9 -13 -10 -13 -10 0 0 13 -1 13 -10 0 -15 -25
-23 -2 -10 30 13 32 25 38 34 18 3 -7 4 -4 3 6 -1 12 8 25 23 33 17 9 20 13 8
13 -9 0 -30 -12 -47 -26z m149 -106 c0 6 9 12 20 12 13 0 20 -7 20 -18 0 -23
-26 -59 -36 -50 -4 4 -1 14 6 22 6 9 10 21 7 28 -4 8 -6 7 -6 -4 -1 -20 -3
-21 -25 -12 -8 3 -12 12 -9 21 5 12 7 12 14 1 7 -10 9 -10 9 0z"/>
<path d="M1612 1365 c20 -13 38 -30 41 -37 4 -9 6 -9 6 -1 1 13 -55 63 -72 63
-6 0 5 -11 25 -25z"/>
<path d="M1535 1340 c-16 -7 -17 -9 -3 -9 9 -1 20 4 23 9 7 11 7 11 -20 0z"/>
<path d="M1540 1160 c0 -5 5 -10 10 -10 6 0 10 5 10 10 0 6 -4 10 -10 10 -5 0
-10 -4 -10 -10z"/>
<path d="M744 1426 c-56 -18 -97 -50 -125 -99 -20 -36 -24 -55 -24 -133 0 -82
3 -94 28 -132 36 -56 90 -82 166 -82 93 0 161 37 192 104 29 63 27 66 -43 66
-59 0 -64 -2 -80 -30 -14 -25 -23 -30 -57 -30 -55 0 -81 34 -81 105 0 93 68
158 128 124 15 -8 28 -24 30 -35 3 -18 10 -20 65 -19 l62 1 -4 30 c-8 68 -55
116 -132 133 -56 13 -74 13 -125 -3z"/>
<path d="M443 1421 c-6 -3 -20 -71 -33 -151 -28 -178 -33 -192 -63 -188 -18 2
-23 10 -25 46 l-3 42 -60 0 -59 0 0 -50 c0 -102 54 -146 167 -137 72 5 105 23
129 69 16 30 64 293 64 350 0 27 -1 28 -54 27 -30 -1 -58 -4 -63 -8z"/>
<path d="M1102 1373 c-6 -32 -21 -121 -32 -198 -11 -77 -23 -150 -25 -162 -5
-22 -3 -23 63 -23 l69 0 12 93 c7 50 21 146 32 212 10 66 19 123 19 126 0 3
-29 7 -64 8 l-63 2 -11 -58z"/>
<path d="M1826 1027 c3 -10 9 -15 12 -12 3 3 0 11 -7 18 -10 9 -11 8 -5 -6z"/>
</g>
</svg>
